# Blender 3.6.0
# www.blender.org
mtllib grass.mtl
o Plane
v -0.000000 1.000000 1.000000
v 0.000000 -1.000000 1.000000
v -0.000000 1.000000 -1.000000
v 0.000000 -1.000000 -1.000000
v -1.000000 1.000000 0.000000
v -1.000000 -1.000000 0.000000
v 1.000000 1.000000 -0.000000
v 1.000000 -1.000000 -0.000000
v -0.000000 1.000000 0.000000
v 0.000000 0.000000 1.000000
v 0.000000 -1.000000 0.000000
v 0.000000 0.000000 -1.000000
v 0.000000 1.000000 -0.000000
v -1.000000 0.000000 0.000000
v 0.000000 -1.000000 0.000000
v 1.000000 0.000000 -0.000000
v 0.000000 0.000000 0.000000
v 0.000000 0.000000 0.000000
vn 1.0000 -0.0000 -0.0000
vn -0.0000 -0.0000 1.0000
vt 0.500000 0.500000
vt 0.500000 0.000000
vt 1.000000 0.000000
vt 1.000000 0.500000
vt 0.500000 1.000000
vt 1.000000 1.000000
vt -0.000000 1.000000
vt 0.000000 0.500000
vt 0.000000 -0.000000
s 0
usemtl grass
f 18/1/1 11/2/1 4/3/1 12/4/1
f 17/1/2 15/2/2 8/3/2 16/4/2
f 13/5/2 17/1/2 16/4/2 7/6/2
f 5/7/2 14/8/2 17/1/2 13/5/2
f 14/8/2 6/9/2 15/2/2 17/1/2
f 9/5/1 18/1/1 12/4/1 3/6/1
f 1/7/1 10/8/1 18/1/1 9/5/1
f 10/8/1 2/9/1 11/2/1 18/1/1
